<svg xmlns="http://www.w3.org/2000/svg" viewBox="0 0 263 133"><defs><style>.cls-1{fill:#6b3a24;}.cls-2{fill:#f7e5cb;}.cls-3{fill:none;stroke:#6b3a24;stroke-miterlimit:10;stroke-width:4px;}.cls-4{font-size:56px;letter-spacing:0.06em;}.cls-4,.cls-5{fill:#5d513e;font-family:EdwardianScriptITC, Edwardian Script ITC;}.cls-5{font-size:40px;letter-spacing:0.06em;}</style></defs><title>Asset 2</title><g id="Layer_2" data-name="Layer 2"><g id="Layer_3" data-name="Layer 3"><path class="cls-1" d="M260.31,127.33l.06-.36h1.78a0,0,0,0,1,.05,0v2.26a0,0,0,0,1-.05.05h-3.4a0,0,0,0,1-.05-.05v-2Z"/><path class="cls-2" d="M261,119a50.3,50.3,0,0,1-.63,8h-1.62a0,0,0,0,0-.05,0v.31H3.23v-.16a.06.06,0,0,0,0,0H2.67A49.89,49.89,0,0,1,2,119C2,90.79,25.65,66,61.37,51.73v2.1l1.15-.35,0,0,1.12-1.31a.05.05,0,0,0,0-.08l-1.81-.83C71.75,22.63,99.87,2,133,2s61.48,20.79,71.29,49.58l-.8-.54a.05.05,0,0,0-.08,0l-.67,2a.07.07,0,0,0,0,.06l1,.79h.06l1.95-1.33h0C240.2,67,261,91.36,261,119Z"/><path class="cls-1" d="M260.37,127l-.06.36H258.7V127a0,0,0,0,1,.05,0Z"/><path class="cls-1" d="M205.73,52.55a0,0,0,0,1,0,.07l-1.26-.52c-.05-.17-.11-.33-.17-.5v0Z"/><path class="cls-1" d="M204.47,52.1l1.26.52h0L203.78,54h-.06l-1-.79a.07.07,0,0,1,0-.06l.67-2a.05.05,0,0,1,.08,0l.8.54v0C204.36,51.77,204.42,51.93,204.47,52.1Z"/><path class="cls-1" d="M63.64,52.07a.05.05,0,0,1,0,.08l-1.12,1.31,0,0-1.15.35v-2.1l.33-.13c0-.12.08-.24.13-.36Z"/><path class="cls-1" d="M61.83,51.24c0,.12-.09.24-.13.36l-.33.13v-.62s0-.07.07,0Z"/><path class="cls-1" d="M2.7,127.33h.53v2a.05.05,0,0,1,0,.05H.83a0,0,0,0,1,0-.05v-2.11a.05.05,0,0,1,0,0H2.67Z"/><path class="cls-1" d="M3.23,127.17v.16H2.7l0-.21h.51A.06.06,0,0,1,3.23,127.17Z"/><path class="cls-3" d="M205.73,52.62C240.2,67,261,91.36,261,119a50.3,50.3,0,0,1-.63,8"/><path class="cls-3" d="M2.67,127.12A49.89,49.89,0,0,1,2,119C2,90.79,25.65,66,61.37,51.73"/><path class="cls-3" d="M61.83,51.24C71.75,22.63,99.87,2,133,2s61.48,20.79,71.29,49.58"/><line class="cls-3" x1="3.23" y1="127.33" x2="258.7" y2="127.33"/><path class="cls-1" d="M60.67,50.64a3.52,3.52,0,0,1,1.85.14l1,.47.17.35v.21l0,.26-.44.37-1,.12-1.71-.46v-1Z"/><polygon class="cls-1" points="205.31 50.44 206.59 50.83 206.95 51.6 206.45 54.22 205.45 54.61 203.78 53.96 202.75 53.17 202.42 52.1 203.03 51.17 205.31 50.44"/><polygon class="cls-1" points="258.25 126 261.45 126.33 262.31 127.08 262.2 129.14 258.7 128.97 257.34 126.97 258.25 126"/><polygon class="cls-1" points="0.78 126.06 0.67 127.33 0.78 129.28 4.59 128.53 4.31 126.33 2.63 125.5 0.78 126.06"/><text class="cls-4" transform="translate(63.17 75.16)">Eliane</text><text class="cls-5" transform="translate(23.32 105.88)">French Bakery</text><path class="cls-1" d="M143.33,29.07a27.58,27.58,0,0,1-3.72,1.26c-1.29.39-2.28.72-2,.74a18.89,18.89,0,0,1,6.73-.8,47.21,47.21,0,0,1,5.94.8,27,27,0,0,0,5.14.57,12.18,12.18,0,0,0,2.51-.33,12.53,12.53,0,0,0,2.65-1c.37-.17-.81-1.2-2.33-2.13a17.61,17.61,0,0,0-4.09-1.88c-3.69-.85-5.5-.37-6.84.24S145.06,28.14,143.33,29.07Z"/><path class="cls-1" d="M145.12,14.8a29.18,29.18,0,0,1,3.72,4.69c1.09,1.48,2.68,2.91,5.86,5.46.64.5,2.37,1.65,3.87,2.67s2.79,1.93,2.83,1.52a8,8,0,0,0-.23-3.1,9.62,9.62,0,0,0-1.32-2.84,18.15,18.15,0,0,0-5.27-4.9,52.21,52.21,0,0,0-7.74-4c-2.89-1.25-6-2.45-9.39-3.8-.4,0,1.08.53,2.87,1.39A21.68,21.68,0,0,1,145.12,14.8Z"/><path class="cls-1" d="M133.57,27.27a9.31,9.31,0,0,1-1.39.91l-1.71.93-1.35.72c-.31.2-.46.31-.33.3a13.19,13.19,0,0,1,1.47-.71c.5-.2,1-.41,1.49-.56a22.4,22.4,0,0,1,3-.71c2-.34,3.81-.43,5.51-.56,3.41-.27,6.14-.68,8.59-3.45.12-.13-.13-.34-.61-.56a13.81,13.81,0,0,0-1.92-.64,16.6,16.6,0,0,0-3.9-.56,15.28,15.28,0,0,0-2.16.24,9.23,9.23,0,0,0-1.6.42,6.17,6.17,0,0,0-2,1.15,13.27,13.27,0,0,0-1.37,1.43A19.4,19.4,0,0,1,133.57,27.27Z"/><path class="cls-1" d="M132.38,13.74a14.27,14.27,0,0,1,2.28,1.81c.61.56,1.12,1.11,1.74,1.65a14.89,14.89,0,0,0,2.29,1.62c.49.27,1,.57,1.67.88s1.35.65,2.17,1c.66.28,2.39.85,3.92,1.33a18.32,18.32,0,0,0,2,.56c.51.12.82.13.77-.07-.9-3.93-4.07-6.23-8.33-7.73a52,52,0,0,0-7.16-1.87l-4.08-.8c-.71-.16-1.43-.27-2.17-.42s-1.49-.33-2.25-.47c-.18,0,.07.09.57.21l2.07.55a24.8,24.8,0,0,1,2.54.8A10.73,10.73,0,0,1,132.38,13.74Z"/><path class="cls-1" d="M124.43,27.31a18.23,18.23,0,0,1-2.52,2.17c-.89.74-1.58,1.29-1.35,1.23.39-.32.8-.61,1.21-.89a12.54,12.54,0,0,1,1.26-.74,19.32,19.32,0,0,1,2.57-1.15c1.71-.64,3.38-1,4.89-1.48,3-.89,5.43-1.83,7-4.92.15-.29-1.07-.51-2.46-.54a17.73,17.73,0,0,0-2.08.05,8.07,8.07,0,0,0-1.46.2c-2.88.81-4.05,1.75-4.83,2.73a12.32,12.32,0,0,0-1,1.54A14,14,0,0,1,124.43,27.31Z"/><path class="cls-1" d="M121.24,15.09a14.37,14.37,0,0,1,2.28,1.28c.62.43,1.17.86,1.79,1.24a18.75,18.75,0,0,0,6,2.13c.31.06.87.14,1.53.23l2.13.21c1.42.12,2.65.19,2.5-.15-1.63-3.38-4.74-4.82-8.67-5.41s-8.65-.44-14.22-.71c-.31.08.92.13,2.43.27A17.19,17.19,0,0,1,121.24,15.09Z"/><path class="cls-1" d="M116.61,28.68A15.86,15.86,0,0,1,114.73,31c-.67.78-1.2,1.36-1,1.28a15.65,15.65,0,0,1,4-3.2c.71-.4,1.39-.79,2.08-1.1s1.34-.67,2-1c2.52-1.26,4.49-2.48,5.31-5.51.08-.32-1-.27-2.25-.1a15.46,15.46,0,0,0-3,.79,7.73,7.73,0,0,0-3.8,3.15C117.53,26.37,117.34,27.37,116.61,28.68Z"/><path class="cls-1" d="M112,17.85a27.26,27.26,0,0,1,3.88,1.69,14.82,14.82,0,0,0,5.49,1.05,31.1,31.1,0,0,0,3.2-.18c1.27-.08,2.36-.25,2.16-.54-2-2.75-4.82-3.56-8.29-3.51s-7.51.84-12.42,1.38a8.38,8.38,0,0,0,2.17-.08A15.84,15.84,0,0,1,112,17.85Z"/><path class="cls-1" d="M110.54,30.24a15.23,15.23,0,0,1-1.32,2.25c-.48.74-.82,1.34-.68,1.24,1.68-2.7,4.22-4.18,6.19-5.57a14.14,14.14,0,0,0,1.39-1.07,7.54,7.54,0,0,0,1.16-1.17,6.37,6.37,0,0,0,1.27-3.25c0-.28-.9-.12-1.92.22a13.42,13.42,0,0,0-2.41,1.05,6.76,6.76,0,0,0-2.84,3.23C111,28.08,111,29,110.54,30.24Z"/><path class="cls-1" d="M105.54,21.6a20.31,20.31,0,0,1,3.47,1,12.38,12.38,0,0,0,4.74.24,25.35,25.35,0,0,0,2.66-.55c1-.26,2-.51,1.76-.75a6.46,6.46,0,0,0-3.35-2,9.45,9.45,0,0,0-1.94-.22,17.6,17.6,0,0,0-2.1.19c-2.92.46-6.22,1.63-10.29,2.72-.2.14.68-.14,1.81-.35A11.91,11.91,0,0,1,105.54,21.6Z"/><path class="cls-1" d="M105.6,32.52a5,5,0,0,1-.33,1c-.16.36-.34.75-.48,1.11-.29.72-.52,1.25-.41,1.15A11.47,11.47,0,0,1,105.3,34c.37-.51.75-1,1.14-1.46l1.22-1.25c.39-.41.82-.74,1.18-1.11,1.5-1.46,2.61-2.82,2.54-5.22,0-.25-.78,0-1.6.44a14,14,0,0,0-1.88,1.19,9.92,9.92,0,0,0-1.45,1.76,4.13,4.13,0,0,0-.52,1.39,8.83,8.83,0,0,0-.14,1.26A14.82,14.82,0,0,1,105.6,32.52Z"/><path class="cls-1" d="M100.3,25.61a6.85,6.85,0,0,1,1.67.16c.48.1.9.21,1.37.27a7.5,7.5,0,0,0,1.6,0,13.27,13.27,0,0,0,2.39-.43,14.72,14.72,0,0,0,2.14-.79c.86-.34,1.61-.7,1.41-.87-1.94-1.62-4-1.58-6.43-.83a82.63,82.63,0,0,0-8.32,3.67c-.15.14.58-.18,1.49-.54a10.19,10.19,0,0,1,1.45-.46A6.44,6.44,0,0,1,100.3,25.61Z"/><path class="cls-1" d="M95.85,36.56s0,0,0,0h0a11.32,11.32,0,0,1,1.37-1.76,12.43,12.43,0,0,1,1.5-1.18c.51-.32,1-.56,1.51-.8s1-.44,1.42-.65a9.49,9.49,0,0,0,1.29-.72,5.13,5.13,0,0,0,1.18-1A9.56,9.56,0,0,0,105.24,29c.17-.3.34-.62.51-1s.37-.73.55-1.16a13.05,13.05,0,0,0-1.36-.06,10.09,10.09,0,0,0-1.16.12,5.83,5.83,0,0,0-1.89.6,6.25,6.25,0,0,0-1.37,1,7.73,7.73,0,0,0-1,1.28C98.35,31.66,97.65,33.87,95.85,36.56Z"/><path class="cls-1" d="M172.81,43.49l-.32-.6c-.21-.38-.47-.93-.87-1.56a43.25,43.25,0,0,0-3.05-4.47,40.29,40.29,0,0,0-3.66-4c-.51-.53-1-.9-1.31-1.2l-.51-.44-.26.32.83.81c.53.51,1.24,1.29,2.07,2.24a38.93,38.93,0,0,1,5.06,7.61,42.82,42.82,0,0,1,3.11,8.4c.14.59.27,1.13.39,1.61s.17.9.24,1.24c.13.69.2,1.08.2,1.08l2-.2-.37-1.44c-.2-.87-.57-2-.92-3.16s-.8-2.27-1.17-3.1c-.17-.42-.32-.77-.42-1l-.18-.38a14,14,0,0,0,.71-3c.07-.54.12-1.09.15-1.67s0-1.15,0-1.75a22.63,22.63,0,0,0-1.91-7.7,28.42,28.42,0,0,0-5-7.6,29.65,29.65,0,0,0-7.33-5.86,54.12,54.12,0,0,0-7.19-3.16,40.44,40.44,0,0,1,12.16,9.67c.66.78,1.23,1.58,1.76,2.31s1,1.47,1.36,2.17.73,1.37,1,2,.55,1.27.78,1.85.4,1.16.57,1.69.31,1,.42,1.55.22,1,.33,1.42.16.9.24,1.34C172.08,40.26,172.32,41.81,172.81,43.49Z"/></g></g></svg>